{
  "accessors": [
    {
      "bufferView": 1,
      "componentType": 5126,
      "count": 65532,
      "max": [
        0.07896500080823898,
        0.19503900408744812,
        1.7953089475631714
      ],
      "min": [
        -0.3472540080547333,
        -0.1409049928188324,
        -0.009971999563276768
      ],
      "type": "VEC3"
    },
    {
      "bufferView": 1,
      "byteOffset": 786384,
      "componentType": 5126,
      "count": 65532,
      "max": [
        0.9999995231628418,
        0.9999996423721313,
        0.9999896287918091
      ],
      "min": [
        -0.9999996423721313,
        -0.9999998211860657,
        -0.9999929070472717
      ],
      "type": "VEC3"
    },
    {
      "bufferView": 0,
      "componentType": 5125,
      "count": 357543,
      "type": "SCALAR"
    },
    {
      "bufferView": 1,
      "byteOffset": 1572768,
      "componentType": 5126,
      "count": 65532,
      "max": [
        0.35059699416160583,
        0.19503900408744812,
        1.7933789491653442
      ],
      "min": [
        -0.34681400656700134,
        -0.1409049928188324,
        -0.009971999563276768
      ],
      "type": "VEC3"
    },
    {
      "bufferView": 1,
      "byteOffset": 2359152,
      "componentType": 5126,
      "count": 65532,
      "max": [
        0.999999463558197,
        0.9999372959136963,
        0.9995452761650085
      ],
      "min": [
        -0.999994695186615,
        -0.9999852776527405,
        -0.9999940395355225
      ],
      "type": "VEC3"
    },
    {
      "bufferView": 0,
      "byteOffset": 1430172,
      "componentType": 5125,
      "count": 356865,
      "type": "SCALAR"
    },
    {
      "bufferView": 1,
      "byteOffset": 3145536,
      "componentType": 5126,
      "count": 45924,
      "max": [
        0.3504520058631897,
        0.19502200186252594,
        1.7933290004730225
      ],
      "min": [
        -0.35059699416160583,
        -0.1409049928188324,
        -0.009971999563276768
      ],
      "type": "VEC3"
    },
    {
      "bufferView": 1,
      "byteOffset": 3696624,
      "componentType": 5126,
      "count": 45924,
      "max": [
        0.9999749660491943,
        0.9999569654464722,
        0.9993566274642944
      ],
      "min": [
        -0.9999995231628418,
        -0.9999908208847046,
        -0.9999940395355225
      ],
      "type": "VEC3"
    },
    {
      "bufferView": 0,
      "byteOffset": 2857632,
      "componentType": 5125,
      "count": 198228,
      "type": "SCALAR"
    }
  ],
  "asset": {
    "extras": {
      "author": "zeroran (https://sketchfab.com/zeroran)",
      "license": "CC-BY-4.0 (http://creativecommons.org/licenses/by/4.0/)",
      "source": "https://sketchfab.com/3d-models/anatomy-study-20-basemesh-human-male-body-c3f13a4baa2f4ea5a0a88d29e7fa1779",
      "title": "Anatomy study 2.0 Basemesh Human Male Body"
    },
    "generator": "Sketchfab-12.66.0",
    "version": "2.0"
  },
  "bufferViews": [
    {
      "buffer": 0,
      "byteLength": 3650544,
      "name": "floatBufferViews",
      "target": 34963
    },
    {
      "buffer": 0,
      "byteLength": 4247712,
      "byteOffset": 3650544,
      "byteStride": 12,
      "name": "floatBufferViews",
      "target": 34962
    }
  ],
  "buffers": [
    {
      "byteLength": 7898256,
      "uri": "scene.bin"
    }
  ],
  "materials": [
    {
      "name": "Scene_-_Root",
      "pbrMetallicRoughness": {
        "metallicFactor": 0.0,
        "roughnessFactor": 0.6663490853658537
      }
    }
  ],
  "meshes": [
    {
      "name": "Object_0",
      "primitives": [
        {
          "attributes": {
            "NORMAL": 1,
            "POSITION": 0
          },
          "indices": 2,
          "material": 0,
          "mode": 4
        }
      ]
    },
    {
      "name": "Object_1",
      "primitives": [
        {
          "attributes": {
            "NORMAL": 4,
            "POSITION": 3
          },
          "indices": 5,
          "material": 0,
          "mode": 4
        }
      ]
    },
    {
      "name": "Object_2",
      "primitives": [
        {
          "attributes": {
            "NORMAL": 7,
            "POSITION": 6
          },
          "indices": 8,
          "material": 0,
          "mode": 4
        }
      ]
    }
  ],
  "nodes": [
    {
      "children": [
        1
      ],
      "matrix": [
        1.0,
        0.0,
        0.0,
        0.0,
        0.0,
        2.220446049250313e-16,
        -1.0,
        0.0,
        0.0,
        1.0,
        2.220446049250313e-16,
        0.0,
        0.0,
        0.0,
        0.0,
        1.0
      ],
      "name": "Sketchfab_model"
    },
    {
      "children": [
        2,
        3,
        4
      ],
      "name": "tofab.obj.cleaner.materialmerger.gles"
    },
    {
      "mesh": 0,
      "name": "Object_2"
    },
    {
      "mesh": 1,
      "name": "Object_3"
    },
    {
      "mesh": 2,
      "name": "Object_4"
    }
  ],
  "scene": 0,
  "scenes": [
    {
      "name": "Sketchfab_Scene",
      "nodes": [
        0
      ]
    }
  ]
}
